<svg width="22" height="22" viewBox="0 0 22 22" fill="none" xmlns="http://www.w3.org/2000/svg">
<path d="M11.7159 2.17709C11.3667 1.74167 10.6333 1.74167 10.2841 2.17709L2.95075 11.3438C2.84317 11.4787 2.77582 11.6412 2.75644 11.8127C2.73707 11.9842 2.76644 12.1577 2.8412 12.3132C2.91596 12.4688 3.03307 12.6001 3.17908 12.6921C3.32509 12.7841 3.49409 12.833 3.66666 12.8333H7.33333V19.25C7.33333 19.4931 7.42991 19.7263 7.60182 19.8982C7.77372 20.0701 8.00688 20.1667 8.25 20.1667H13.75C13.9931 20.1667 14.2263 20.0701 14.3982 19.8982C14.5701 19.7263 14.6667 19.4931 14.6667 19.25V12.8333H18.3333C18.5059 12.833 18.6749 12.7841 18.8209 12.6921C18.9669 12.6001 19.084 12.4688 19.1588 12.3132C19.2336 12.1577 19.2629 11.9842 19.2436 11.8127C19.2242 11.6412 19.1568 11.4787 19.0492 11.3438L11.7159 2.17709ZM13.75 11H12.8333V18.3333H9.16666V11H5.57425L11 4.21759L16.4257 11H13.75Z" fill="#040906"/>
</svg>
